<?xml version="1.0" standalone="no"?><!DOCTYPE svg PUBLIC "-//W3C//DTD SVG 1.1//EN" "http://www.w3.org/Graphics/SVG/1.1/DTD/svg11.dtd"><svg t="1617184571254" class="icon" viewBox="0 0 1024 1024" version="1.1" xmlns="http://www.w3.org/2000/svg" p-id="7601" xmlns:xlink="http://www.w3.org/1999/xlink" width="32" height="32"><defs><style type="text/css"></style></defs><path d="M512 512m-512 0a512 512 0 1 0 1024 0 512 512 0 1 0-1024 0Z" fill="#2c2c2c" p-id="7602" data-spm-anchor-id="a313x.7781069.0.i0" class=""></path><path d="M732.9792 298.5984a34.030933 34.030933 0 0 1-0.682667 48.128l-172.032 166.0928 166.126934 172.032c12.0832 12.526933 12.629333 31.914667 1.706666 45.192533l-2.730666 2.935467a34.030933 34.030933 0 0 1-48.059734-0.682667l-166.161066-172.032-172.032 166.126934a33.928533 33.928533 0 0 1-48.128-1.024 34.030933 34.030933 0 0 1 0.682666-48.059734l172.032-166.161066-166.0928-172.032a33.928533 33.928533 0 0 1 1.024-48.128 34.030933 34.030933 0 0 1 48.059734 0.682666l166.126933 172.032 172.032-166.0928a33.8944 33.8944 0 0 1 45.192533-1.706666l2.935467 2.730666z" fill="#999999" p-id="7603" data-spm-anchor-id="a313x.7781069.0.i1" class="selected"></path></svg>